<svg width="48" height="48" viewBox="0 0 48 48" fill="none" xmlns="http://www.w3.org/2000/svg">
<circle cx="24" cy="24" r="24" fill="#67C57B" fill-opacity="0.1"/>
<path d="M17.4341 28.5659C14.2927 25.4244 12.5111 22.203 11.502 19.5021C9.78616 14.9097 12.6571 10.0326 17.253 9.14354C17.6959 9.05784 22.8077 12.3564 21.8676 15.9291C21.8676 15.9291 21.4823 17.756 20.3084 18.2783C19.7866 18.5104 19.2362 18.6781 18.7348 18.6781C18.7348 18.6781 18.7818 20.9189 21.9315 24.0686C24.7521 26.8892 27.322 27.2653 27.322 27.2653C27.322 26.7639 27.4896 26.2135 27.7216 25.6918C28.2439 24.5178 30.1356 24.7305 30.1356 24.7305C32.8348 24.6639 36.9422 28.3039 36.8565 28.7467C35.9676 33.3428 31.0904 36.2138 26.4979 34.498C23.797 33.4889 20.5756 31.7073 17.4341 28.5659Z" fill="#67C57B"/>
<path d="M35.6307 31.6548C33.6991 34.4358 30.0152 35.8119 26.4983 34.4979C23.7971 33.4887 20.5754 31.7072 17.4341 28.5659C14.2928 25.4245 12.5113 22.2029 11.5021 19.5017C10.1881 15.9848 11.5642 12.301 14.3452 10.3693C12.9552 12.3645 12.4915 15.005 13.4453 17.5586C14.4544 20.2598 16.236 23.4814 19.3773 26.6227C22.5186 29.764 25.7402 31.5456 28.4415 32.5547C30.995 33.5085 33.6356 33.0448 35.6307 31.6548Z" fill="#40AE57"/>
<path d="M36.8965 25.6517C36.9764 26.2481 37.0076 26.8219 36.999 27.3731C36.9913 27.8454 36.9422 28.3042 36.8566 28.7468H36.8556C33.0544 25.9181 27.7222 25.692 27.7222 25.692C28.2441 24.518 29.093 23.4892 29.093 23.4892C32.6653 22.5489 36.8965 25.6517 36.8965 25.6517Z" fill="white"/>
<path d="M22.5113 16.9074C22.5113 16.9074 21.4825 17.7563 20.3084 18.2781C20.3084 18.2781 20.0824 12.9459 17.2537 9.14475L17.2532 9.14427C17.6957 9.05767 18.1551 9.0091 18.6274 9.0014C19.1786 8.99273 19.7524 9.02403 20.3488 9.10383C20.3488 9.10389 23.4517 13.3351 22.5113 16.9074Z" fill="white"/>
</svg>
