<svg width="48" height="48" viewBox="0 0 48 48" fill="none" xmlns="http://www.w3.org/2000/svg">
<circle cx="24" cy="24" r="24" fill="#4DCFE0" fill-opacity="0.1"/>
<path d="M35.3735 11.1386H11.6265C10.7157 11.1386 10 11.8542 10 12.765V29.0301C10 29.9409 10.7157 30.6565 11.6265 30.6565H19.6614L22.6867 35.406C22.8494 35.6987 23.1747 35.8614 23.5 35.8614C23.8253 35.8614 24.1506 35.6987 24.3132 35.406L27.3385 30.6565H35.3735C36.2843 30.6565 36.9999 29.9409 36.9999 29.0301V12.765C37 11.8542 36.2843 11.1386 35.3735 11.1386Z" fill="#4DCFE0"/>
<path d="M31.1446 15.6928H15.8554C15.3024 15.6928 14.8795 16.1157 14.8795 16.6686C14.8795 17.2216 15.3024 17.6445 15.8554 17.6445H31.1446C31.6976 17.6445 32.1204 17.2216 32.1204 16.6686C32.1204 16.1157 31.6975 15.6928 31.1446 15.6928Z" fill="#00BBD3"/>
<path d="M32.1204 20.8976C32.1204 20.3445 31.6975 19.9217 31.1446 19.9217H15.8554C15.3024 19.9217 14.8795 20.3446 14.8795 20.8976C14.8795 21.4505 15.3024 21.8734 15.8554 21.8734H31.1446C31.6975 21.8735 32.1204 21.4506 32.1204 20.8976Z" fill="#00BBD3"/>
<path d="M25.9397 25.1265C25.9397 24.5735 25.5168 24.1506 24.9639 24.1506H15.8554C15.3024 24.1506 14.8795 24.5735 14.8795 25.1265C14.8795 25.6795 15.3024 26.1024 15.8554 26.1024H24.9639C25.5168 26.1024 25.9397 25.6795 25.9397 25.1265Z" fill="#00BBD3"/>
</svg>
