<svg width="48" height="48" viewBox="0 0 48 48" fill="none" xmlns="http://www.w3.org/2000/svg">
<circle cx="24" cy="24" r="24" fill="#FC8551" fill-opacity="0.1"/>
<path d="M33.7953 6.5123C33.5568 6.51831 33.3234 6.58273 33.1156 6.6999C32.9078 6.81708 32.732 6.98344 32.6034 7.18439C31.9492 8.25078 30.5871 10.4687 29.915 11.665C28.9876 13.278 33.2441 11.5754 33.2441 11.5754C33.2441 11.5754 36.3335 6.43389 33.7953 6.5123Z" fill="#FAB480"/>
<path d="M36.6271 10.8159C36.6271 10.8159 37.8032 9.99596 38.3611 10.5538C38.9189 11.1116 37.6262 12.8972 36.8937 13.3631C36.1611 13.8291 31.8082 15.9686 31.8082 15.9686C31.8082 15.9686 35.3815 11.2685 36.6271 10.8159Z" fill="#FAB480"/>
<path d="M31.2279 14.2996C30.0204 14.2996 28.8173 14.9336 28.2595 15.2764C29.2923 16.1344 30.399 17.1426 30.399 17.5368C30.399 18.2761 32.1419 21.1393 32.1419 21.1393L32.0658 26.6213L19.3543 29.6748C19.3543 29.6748 10.8814 29.1372 8.03397 31.998C5.18654 34.8589 3 22.5887 3 22.5753C3 22.5619 10.2631 21.0071 11.5132 19.7682C12.7633 18.5293 13.0814 14.4855 15.0618 13.5782C17.7614 12.3393 20.4744 8.74139 22.7282 6.47868C23.9514 5.25547 24.3793 6.56381 24.3793 8.29557C24.3793 10.1909 22.0269 12.7941 20.9942 13.8247C19.9614 14.8552 21.2988 14.891 21.9015 14.2884C22.587 13.6029 26.0012 12.3595 27.3454 12.3595C28.7479 12.3595 30.2892 11.0153 32.2876 10.2312C34.2859 9.44709 35.648 7.79822 36.9788 9.11104C37.1532 9.33901 37.2804 9.59949 37.3529 9.87723C37.5164 11.3872 32.7222 14.2996 31.2279 14.2996Z" fill="#FDA16F"/>
<path d="M23.1449 6.71615L21.4086 8.73243C21.4096 8.62522 21.3844 8.51939 21.3352 8.42413C21.286 8.32886 21.2143 8.24705 21.1263 8.18579C21.6775 7.58091 22.2129 6.99843 22.7282 6.48316C22.8263 6.38325 22.9327 6.29182 23.0463 6.20984L23.1449 6.71615Z" fill="#FFC5AB"/>
<g style="mix-blend-mode:multiply" opacity="0.73">
<g style="mix-blend-mode:multiply" opacity="0.73">
<path d="M20.555 15.2271C20.8813 16.825 20.7903 18.4801 20.2907 20.0326C20.1039 20.5578 19.8289 21.0472 19.4775 21.4798C18.1915 22.9987 15.6465 23.868 13.6683 24.1279C15.4023 23.5812 17.9697 22.6089 19.1347 21.1931C20.3669 19.8758 20.5909 17.0306 20.555 15.2271Z" fill="#FDA16F"/>
</g>
</g>
<g style="mix-blend-mode:multiply" opacity="0.74">
<path d="M31.2279 14.2996C30.0204 14.2996 28.8173 14.9336 28.2595 15.2764C28.2595 15.2764 27.3992 14.7118 29.4939 14.1943C31.5886 13.6768 34.4943 11.8734 35.3904 10.9772C35.7421 10.6255 36.7167 10.0654 37.3103 9.75403C37.8637 11.1744 32.7961 14.2996 31.2279 14.2996Z" fill="#FDA16F"/>
</g>
<g style="mix-blend-mode:multiply" opacity="0.47">
<path d="M31.5281 26.7513L19.3542 29.6749C19.3542 29.6749 10.8814 29.1372 8.03397 31.9981C6.86005 33.172 5.79366 31.7741 4.96027 29.7399C7.96452 28.2277 10.9284 26.926 12.2413 26.926C12.2413 26.926 12.5594 25.024 15.1537 22.432C17.7479 19.8399 20.4363 13.529 23.4428 13.529C26.4493 13.529 29.1444 15.5318 30.0114 21.2245C30.3155 23.1162 30.824 24.9693 31.5281 26.7513Z" fill="#FDA16F"/>
</g>
<path d="M30.0406 21.3229C30.2409 21.3698 30.4465 21.3901 30.6522 21.3834C30.6522 22.1093 31.3691 22.6963 32.2518 22.6963C33.1344 22.6963 33.8513 22.1093 33.8513 21.3834C33.8513 20.6934 33.1792 20.0527 32.2159 20.0706C32.1835 19.9732 32.1342 19.8822 32.0703 19.8018C32.6237 19.5142 33.0485 19.0287 33.26 18.442C33.4715 17.8552 33.4541 17.2103 33.2114 16.6358C32.9686 16.0613 32.5183 15.5993 31.9502 15.342C31.3821 15.0846 30.7378 15.0508 30.1459 15.2472C29.8034 14.7988 29.3412 14.4563 28.8125 14.2591C28.2839 14.0619 27.7103 14.018 27.1578 14.1324C26.6053 14.2469 26.0964 14.5151 25.6896 14.9062C25.2829 15.2972 24.9949 15.7952 24.8587 16.3427C24.3886 16.2512 23.9014 16.3165 23.472 16.5287C23.1695 16.4138 22.84 16.3904 22.5243 16.4615C22.4626 16.2435 22.3417 16.0469 22.175 15.8934C22.0083 15.74 21.8023 15.6358 21.58 15.5924C21.3576 15.549 21.1276 15.5681 20.9154 15.6476C20.7033 15.727 20.5173 15.8637 20.3781 16.0425C20.1593 15.9627 19.9221 15.9471 19.6947 15.9975C19.4672 16.0478 19.2589 16.1621 19.0942 16.3268C18.9294 16.4915 18.8152 16.6999 18.7648 16.9273C18.7145 17.1548 18.7301 17.3919 18.8099 17.6108C18.5072 17.7444 18.2596 17.9781 18.1087 18.2726C17.9578 18.5671 17.9127 18.9045 17.981 19.2283C17.7874 19.2782 17.6115 19.3812 17.4733 19.5257C17.3351 19.6702 17.24 19.8505 17.1988 20.0461C17.1575 20.2418 17.1718 20.4451 17.24 20.6331C17.3081 20.8211 17.4274 20.9863 17.5845 21.1101C17.53 21.2519 17.5064 21.4037 17.5151 21.5553C17.5238 21.7069 17.5647 21.855 17.635 21.9896C17.7053 22.1242 17.8035 22.2424 17.923 22.3362C18.0424 22.4299 18.1805 22.4972 18.3279 22.5336C18.4754 22.5699 18.6289 22.5745 18.7783 22.547C18.9277 22.5194 19.0695 22.4605 19.1943 22.3739C19.3191 22.2874 19.4241 22.1753 19.5023 22.0451C19.5805 21.9149 19.6301 21.7695 19.6478 21.6187C20.0408 21.6333 20.4258 21.5053 20.7317 21.2582C21.0377 21.0112 21.2439 20.6617 21.3123 20.2745C21.5037 20.3151 21.7002 20.3257 21.8948 20.3058C21.7032 20.8169 21.7083 21.3809 21.9093 21.8883C22.1102 22.3957 22.4926 22.8104 22.9821 23.0517C23.4717 23.2929 24.0334 23.3436 24.5582 23.1939C25.0831 23.0442 25.5335 22.7047 25.8221 22.2415C26.5211 22.6083 27.327 22.7172 28.0983 22.5493C28.8697 22.3813 29.5573 21.9472 30.0406 21.3229Z" fill="#FFF6F0"/>
<path d="M37.6509 11.6113C37.5888 11.3933 37.4676 11.1968 37.3007 11.0435C37.1337 10.8902 36.9277 10.7861 36.7052 10.7427C36.4828 10.6994 36.2527 10.7184 36.0404 10.7977C35.8281 10.8771 35.6419 11.0137 35.5025 11.1923C35.3393 11.1314 35.1651 11.106 34.9913 11.1178C34.8176 11.1296 34.6484 11.1784 34.495 11.2609C34.3417 11.3434 34.2077 11.4577 34.102 11.5961C33.9964 11.7345 33.9215 11.8939 33.8824 12.0636C33.8433 12.2333 33.8409 12.4094 33.8754 12.5801C33.9098 12.7508 33.9803 12.9122 34.0821 13.0535C34.184 13.1947 34.3148 13.3126 34.4658 13.3993C34.6169 13.4859 34.7847 13.5393 34.9581 13.5558C34.9522 13.8396 35.0109 14.1209 35.1299 14.3786C35.2488 14.6363 35.4248 14.8635 35.6445 15.0431C35.8643 15.2227 36.122 15.35 36.3982 15.4152C36.6744 15.4805 36.9618 15.482 37.2387 15.4198C37.3117 15.6113 37.4264 15.7842 37.5745 15.9259C37.7226 16.0675 37.9004 16.1744 38.095 16.2388C38.2896 16.3031 38.4961 16.3233 38.6994 16.2979C38.9028 16.2725 39.098 16.2021 39.2707 16.0919C39.4435 15.9816 39.5896 15.8343 39.6983 15.6605C39.807 15.4868 39.8756 15.291 39.8992 15.0874C39.9228 14.8838 39.9008 14.6775 39.8347 14.4835C39.7686 14.2895 39.6601 14.1127 39.5171 13.9658C39.6553 13.6835 39.7108 13.3679 39.6771 13.0554C39.6434 12.7429 39.5219 12.4463 39.3266 12.2C39.1314 11.9536 38.8704 11.7676 38.5739 11.6634C38.2773 11.5593 37.9573 11.5412 37.6509 11.6113Z" fill="#FFF6F0"/>
<path d="M33.5734 15.6438C33.373 15.5369 33.1468 15.4878 32.9201 15.5018C32.6934 15.5158 32.4751 15.5924 32.2893 15.7232C32.1036 15.8539 31.9577 16.0336 31.868 16.2422C31.7783 16.4509 31.7482 16.6803 31.7812 16.9051C31.6252 16.9813 31.4872 17.0898 31.3764 17.2235C31.2656 17.3571 31.1845 17.5128 31.1386 17.6802C31.0926 17.8476 31.0828 18.0229 31.1098 18.1944C31.1368 18.3659 31.2 18.5296 31.2952 18.6748C31.3903 18.82 31.5153 18.9432 31.6618 19.0364C31.8083 19.1295 31.973 19.1904 32.1448 19.215C32.3167 19.2396 32.4918 19.2273 32.6585 19.179C32.8253 19.1307 32.9798 19.0475 33.1119 18.9348C33.3126 19.1333 33.5556 19.2837 33.8227 19.3749C34.0898 19.4661 34.3741 19.4957 34.6543 19.4614C34.9345 19.4272 35.2033 19.33 35.4405 19.1771C35.6778 19.0242 35.8774 18.8196 36.0243 18.5786C36.2134 18.6615 36.4186 18.701 36.6249 18.694C36.8312 18.6871 37.0334 18.634 37.2164 18.5386C37.3995 18.4432 37.5588 18.3079 37.6827 18.1428C37.8065 17.9776 37.8917 17.7868 37.9321 17.5843C37.9724 17.3819 37.9668 17.1729 37.9156 16.9729C37.8645 16.7729 37.7692 16.587 37.6366 16.4287C37.5041 16.2704 37.3377 16.1439 37.1498 16.0585C36.9619 15.9731 36.7572 15.9309 36.5508 15.935C36.4419 15.6428 36.2532 15.3871 36.006 15.197C35.7589 15.0069 35.4634 14.8899 35.153 14.8596C34.8427 14.8292 34.5301 14.8867 34.2508 15.0253C33.9716 15.1639 33.7368 15.3782 33.5734 15.6438Z" fill="#FFF6F0"/>
<path d="M24.079 13.7329C24.6519 13.7329 25.1163 13.2685 25.1163 12.6956C25.1163 12.1227 24.6519 11.6583 24.079 11.6583C23.5061 11.6583 23.0417 12.1227 23.0417 12.6956C23.0417 13.2685 23.5061 13.7329 24.079 13.7329Z" fill="#FFF6F0"/>
<path d="M40.5163 16.0695C40.3663 16.0414 40.2114 16.0602 40.0725 16.1233C39.9336 16.1865 39.8177 16.291 39.7403 16.4225C39.663 16.554 39.6282 16.7062 39.6405 16.8582C39.6528 17.0103 39.7117 17.1548 39.8092 17.2722C39.9067 17.3895 40.038 17.4739 40.1852 17.5139C40.3324 17.5539 40.4884 17.5475 40.6319 17.4956C40.7753 17.4437 40.8993 17.3488 40.9868 17.2239C41.0744 17.099 41.1213 16.9501 41.1211 16.7976C41.1367 16.621 41.0819 16.4453 40.9686 16.309C40.8553 16.1726 40.6927 16.0865 40.5163 16.0695Z" fill="#FFF6F0"/>
<path d="M28.4096 10.807C28.4096 11.2752 28.7994 11.6179 29.1556 11.3962C29.3222 11.5616 29.5373 11.6697 29.7695 11.7046C30.0018 11.7395 30.2391 11.6995 30.447 11.5904C30.655 11.4813 30.8227 11.3087 30.9259 11.0977C31.0291 10.8868 31.0624 10.6484 31.0209 10.4172C30.9794 10.1861 30.8653 9.97418 30.6951 9.81229C30.525 9.6504 30.3077 9.54696 30.0748 9.51697C29.8419 9.48699 29.6054 9.53204 29.3999 9.64557C29.1943 9.75909 29.0302 9.9352 28.9315 10.1483C28.8523 10.1486 28.7746 10.1711 28.7075 10.2133C28.6723 10.15 28.6206 10.0974 28.5578 10.0613C28.495 10.0252 28.4236 10.0068 28.3512 10.0082C28.2788 10.0096 28.2081 10.0307 28.1468 10.0693C28.0854 10.1078 28.0357 10.1623 28.0031 10.227C27.9704 10.2916 27.9559 10.3639 27.9612 10.4362C27.9665 10.5084 27.9914 10.5778 28.0332 10.637C28.075 10.6962 28.1321 10.7428 28.1984 10.772C28.2647 10.8011 28.3377 10.8117 28.4096 10.8025V10.807Z" fill="#FFF6F0"/>
<path d="M29.8367 9.06176C30.0532 9.06176 30.2287 8.88623 30.2287 8.6697C30.2287 8.45318 30.0532 8.27765 29.8367 8.27765C29.6202 8.27765 29.4446 8.45318 29.4446 8.6697C29.4446 8.88623 29.6202 9.06176 29.8367 9.06176Z" fill="#FFF6F0"/>
<path d="M31.676 7.87216C31.7554 7.87216 31.833 7.84858 31.899 7.80442C31.965 7.76025 32.0164 7.69749 32.0467 7.62408C32.077 7.55068 32.0848 7.46993 32.0691 7.39208C32.0535 7.31423 32.0151 7.24278 31.9587 7.18679C31.9024 7.1308 31.8308 7.09278 31.7528 7.07756C31.6749 7.06234 31.5942 7.07061 31.521 7.1013C31.4477 7.132 31.3853 7.18375 31.3415 7.24999C31.2977 7.31623 31.2745 7.39398 31.275 7.47339C31.275 7.52594 31.2854 7.57798 31.3055 7.62651C31.3257 7.67504 31.3553 7.7191 31.3926 7.75616C31.4298 7.79322 31.4741 7.82254 31.5227 7.84245C31.5713 7.86236 31.6234 7.87246 31.676 7.87216Z" fill="#FFF6F0"/>
<path d="M36.5397 27.4883C36.4172 27.4878 36.2974 27.5238 36.1953 27.5916C36.0933 27.6593 36.0137 27.7559 35.9666 27.869C35.9195 27.982 35.9071 28.1065 35.9309 28.2267C35.9547 28.3468 36.0136 28.4572 36.1002 28.5438C36.1868 28.6304 36.2972 28.6894 36.4174 28.7132C36.5375 28.7369 36.662 28.7245 36.7751 28.6774C36.8882 28.6304 36.9847 28.5508 37.0525 28.4487C37.1203 28.3467 37.1562 28.2269 37.1558 28.1044C37.1552 27.9412 37.0901 27.7848 36.9747 27.6694C36.8593 27.554 36.7029 27.4889 36.5397 27.4883Z" fill="#FFF6F0"/>
<path d="M38.621 26.1442C38.5446 26.1437 38.4698 26.166 38.406 26.2082C38.3423 26.2503 38.2926 26.3105 38.2632 26.381C38.2337 26.4515 38.2259 26.5292 38.2407 26.6041C38.2555 26.6791 38.2922 26.7479 38.3463 26.802C38.4003 26.856 38.4691 26.8927 38.5441 26.9075C38.6191 26.9223 38.6967 26.9145 38.7672 26.8851C38.8377 26.8556 38.8979 26.8059 38.9401 26.7422C38.9822 26.6785 39.0045 26.6037 39.0041 26.5273C39.0041 26.4257 38.9637 26.3282 38.8919 26.2564C38.82 26.1845 38.7226 26.1442 38.621 26.1442Z" fill="#FFF6F0"/>
<path d="M36.4187 15.0793C36.4187 15.0793 37.2386 14.732 37.7337 15.2271C38.2288 15.7223 37.3753 18.3322 37.3753 18.3322L34.2501 18.4622C34.2501 18.4622 35.1574 15.7559 36.4187 15.0793Z" fill="#FAB480"/>
<path d="M41.6476 14.7275C41.3877 15.0725 40.9284 15.3638 40.1914 15.44C38.3655 15.6237 38.025 15.7805 38.025 15.7805C38.025 15.7805 36.1431 17.1381 34.5615 16.8782L29.9128 18.424L31.0084 16.4078L32.3055 14.0196C32.3055 14.0196 34.4965 13.6432 35.1148 13.6432C35.7332 13.6432 37.3708 13.1795 38.4215 13.1795C39.4722 13.1795 41.3944 12.9935 41.7663 13.3654C41.9814 13.5939 42.0307 14.219 41.6476 14.7275Z" fill="#FDA16F"/>
<g style="mix-blend-mode:multiply" opacity="0.5">
<path d="M41.6431 14.7343C41.3832 15.0793 40.9239 15.3705 40.1869 15.4467C38.361 15.6304 38.0205 15.7872 38.0205 15.7872C38.0205 15.7872 36.1386 17.1448 34.557 16.8849L29.9083 18.4308L31.0038 16.4145L34.2971 15.9664C34.2971 15.9664 36.636 15.7424 37.1557 15.2271C37.6755 14.7119 40.5027 15.5184 41.6431 14.7343Z" fill="#FDA16F"/>
</g>
<path d="M38.6209 19.486C36.5352 19.4143 36.5352 22.1385 36.5352 22.1385C36.2888 22.2684 35.9482 23.0346 35.5607 23.3348L36.5285 21.0474L33.345 20.7069C33.345 20.7069 32.5721 22.1004 32.3861 22.1004C32.2002 22.1004 33.354 20.2185 33.8491 18.9192C34.3442 17.6198 34.7452 16.8379 34.7452 16.8379L30.8874 18.1082L29.8367 18.9012C29.6126 18.6772 30.101 18.4218 30.7821 17.0955C31.6446 15.4153 32.301 14.0308 32.301 14.0308L28.8263 14.5842L26.1939 17.8326C26.1939 17.8326 25.7302 18.8228 25.7302 17.2725C25.7302 15.7222 26.3194 14.0554 26.6913 12.7561C27.0632 11.4567 26.6913 9.04163 25.0805 9.59947C23.4697 10.1573 22.3563 14.2996 22.3563 15.2271C22.3563 16.1546 21.4893 18.0746 21.4893 18.5092C21.4893 18.9438 19.4461 23.523 19.0249 24.9478C18.6038 26.3727 19.5761 29.4284 19.3968 33.181C19.2176 36.9335 17.5396 40.3007 17.5396 40.3007C17.972 41.4768 27.621 44.2906 27.621 42.3169C27.621 40.3432 29.2945 34.3034 30.0204 32.4215C30.7462 30.5396 33.0089 30.0311 33.5668 29.4733C34.1246 28.9154 37.4806 25.5012 37.4806 25.5012C37.4806 25.5012 38.5739 23.0368 38.9794 21.9593C39.3849 20.8817 39.7612 19.524 38.6209 19.486Z" fill="#FAB480"/>
<path d="M28.8151 15.7827C29.2865 15.7827 29.6687 15.4005 29.6687 14.9291C29.6687 14.4577 29.2865 14.0756 28.8151 14.0756C28.3437 14.0756 27.9615 14.4577 27.9615 14.9291C27.9615 15.4005 28.3437 15.7827 28.8151 15.7827Z" fill="#FFF6F0"/>
<path d="M36.0065 23.2743C36.0069 23.4436 35.9571 23.6093 35.8633 23.7503C35.7696 23.8914 35.636 24.0014 35.4797 24.0665C35.3234 24.1316 35.1512 24.1489 34.9851 24.1161C34.8189 24.0834 34.6662 24.002 34.5463 23.8824C34.4264 23.7629 34.3447 23.6104 34.3115 23.4443C34.2783 23.2782 34.2951 23.106 34.3598 22.9495C34.4245 22.793 34.5342 22.6592 34.675 22.5651C34.8158 22.471 34.9813 22.4207 35.1507 22.4207C35.3772 22.4207 35.5946 22.5106 35.755 22.6706C35.9154 22.8306 36.0059 23.0477 36.0065 23.2743Z" fill="#FFF6F0"/>
<path d="M27.9615 7.87218C27.962 8.04163 27.9121 8.2074 27.8182 8.34847C27.7244 8.48955 27.5907 8.59959 27.4343 8.66464C27.2778 8.72969 27.1055 8.74683 26.9393 8.71388C26.7731 8.68093 26.6204 8.59937 26.5006 8.47955C26.3808 8.35973 26.2992 8.20704 26.2663 8.04082C26.2333 7.87461 26.2505 7.70235 26.3155 7.54588C26.3806 7.38941 26.4906 7.25578 26.6317 7.16191C26.7728 7.06805 26.9385 7.01818 27.108 7.01862C27.3342 7.01921 27.5509 7.10933 27.7109 7.26927C27.8708 7.42922 27.9609 7.64598 27.9615 7.87218Z" fill="#FFF6F0"/>
<path d="M27.6165 17.613C27.6165 17.7743 27.5687 17.932 27.479 18.0661C27.3894 18.2002 27.2621 18.3047 27.1131 18.3664C26.9641 18.4281 26.8001 18.4443 26.6419 18.4128C26.4837 18.3814 26.3384 18.3037 26.2244 18.1896C26.1103 18.0756 26.0327 17.9303 26.0012 17.7721C25.9697 17.6139 25.9859 17.45 26.0476 17.301C26.1093 17.1519 26.2139 17.0246 26.348 16.935C26.4821 16.8454 26.6397 16.7975 26.801 16.7975C27.0173 16.7975 27.2247 16.8835 27.3776 17.0364C27.5306 17.1893 27.6165 17.3967 27.6165 17.613Z" fill="#FFF6F0"/>
<path d="M21.151 15.2293C21.8166 15.2293 22.3563 14.6807 22.3563 14.0039C22.3563 13.3271 21.8166 12.7784 21.151 12.7784C20.4853 12.7784 19.9457 13.3271 19.9457 14.0039C19.9457 14.6807 20.4853 15.2293 21.151 15.2293Z" fill="#FFF6F0"/>
<path d="M20.5304 14.1831C20.5308 14.3902 20.4698 14.5927 20.3551 14.765C20.2405 14.9374 20.0772 15.0718 19.8861 15.1513C19.6949 15.2309 19.4845 15.2519 19.2814 15.2118C19.0783 15.1717 18.8917 15.0722 18.7452 14.926C18.5986 14.7797 18.4987 14.5933 18.4582 14.3903C18.4176 14.1873 18.4382 13.9768 18.5174 13.7855C18.5965 13.5942 18.7306 13.4307 18.9027 13.3156C19.0748 13.2006 19.2771 13.1392 19.4841 13.1392C19.6214 13.1389 19.7574 13.1657 19.8844 13.218C20.0113 13.2703 20.1266 13.3472 20.2238 13.4441C20.321 13.5411 20.3981 13.6563 20.4507 13.7831C20.5033 13.9099 20.5304 14.0459 20.5304 14.1831Z" fill="#FFF6F0"/>
<path d="M39.0085 22.1407C39.0081 22.2438 38.9771 22.3445 38.9195 22.4301C38.8618 22.5156 38.7802 22.5822 38.6847 22.6213C38.5893 22.6605 38.4844 22.6705 38.3833 22.6501C38.2822 22.6297 38.1894 22.5798 38.1166 22.5068C38.0439 22.4337 37.9944 22.3407 37.9744 22.2395C37.9544 22.1383 37.9649 22.0334 38.0045 21.9382C38.0441 21.8429 38.111 21.7615 38.1968 21.7043C38.2825 21.647 38.3834 21.6165 38.4865 21.6165C38.5553 21.6165 38.6233 21.63 38.6868 21.6564C38.7503 21.6828 38.8079 21.7214 38.8564 21.7701C38.9049 21.8188 38.9433 21.8767 38.9694 21.9402C38.9955 22.0038 39.0088 22.0719 39.0085 22.1407Z" fill="#FFF6F0"/>
<path d="M42.2301 19.2082C42.0441 20.0259 41.3944 21.0475 39.6604 20.8929C37.9264 20.7383 37.4627 20.9086 37.4627 20.9086C37.1591 21.1307 36.8117 21.2856 36.4435 21.3629C36.0753 21.4402 35.6949 21.438 35.3277 21.3566C34.572 21.2054 33.7981 21.1677 33.0313 21.2446L32.6326 21.4395C32.8522 20.7761 33.1242 20.1311 33.4458 19.5106C33.622 19.1477 33.8371 18.7452 34.091 18.3031C34.091 18.3031 34.1201 18.3031 34.6981 18.2717C36.645 18.1911 40.4804 18.1351 40.7134 18.1351C41.0225 18.1396 42.416 18.3905 42.2301 19.2082Z" fill="#FDA16F"/>
<g style="mix-blend-mode:multiply" opacity="0.5">
<path d="M42.2301 19.2081C42.0441 20.0258 41.3944 21.0474 39.6604 20.8928C37.9264 20.7383 37.4627 20.9085 37.4627 20.9085C37.1591 21.1307 36.8117 21.2856 36.4435 21.3628C36.0753 21.4401 35.6949 21.438 35.3277 21.3566C34.572 21.2054 33.7981 21.1676 33.0313 21.2446L32.6326 21.4395C32.8522 20.776 33.1242 20.131 33.4458 19.5106C34.4024 19.5464 35.8609 19.6271 36.5397 19.7861L37.6329 19.9609C37.6329 19.9609 38.9771 20.2969 39.9091 20.1087C40.8411 19.9205 41.6207 19.8175 42.2301 19.2081Z" fill="#FDA16F"/>
</g>
<path d="M24.4331 10.4239L23.873 12.6149C23.873 12.6149 25.4412 12.7135 25.6652 12.9555L26.4381 10.7151C26.4381 10.7151 24.9976 9.85711 24.4331 10.4239Z" fill="#FFC5AB"/>
<path d="M33.0649 7.02756L32.3928 9.01695L33.7504 9.46501L34.6914 7.67277C34.6914 7.67277 33.6317 6.92674 33.0649 7.02756Z" fill="#FFC5AB"/>
<g style="mix-blend-mode:multiply">
<g style="mix-blend-mode:multiply">
<path d="M32.8902 10.7151C32.8877 11.0581 32.9643 11.3969 33.1143 11.7054C33.1859 11.859 33.2659 12.0086 33.354 12.1534C33.401 12.2274 33.4481 12.3013 33.4929 12.3775C33.5377 12.4536 33.5892 12.5276 33.6318 12.6015C33.5556 12.5522 33.4817 12.4984 33.4077 12.4424C33.3338 12.3864 33.2733 12.317 33.2106 12.2498C33.0882 12.1104 32.9863 11.9542 32.9081 11.786C32.8297 11.6151 32.7827 11.4314 32.7693 11.2439C32.758 11.0597 32.8 10.8761 32.8902 10.7151Z" fill="#FDA16F"/>
</g>
</g>
<g style="mix-blend-mode:multiply">
<g style="mix-blend-mode:multiply">
<path d="M37.0168 14.0756C36.9464 14.1877 36.9156 14.3202 36.9294 14.4519C36.9449 14.5759 36.9812 14.6963 37.037 14.8081C37.0947 14.9281 37.159 15.0448 37.2296 15.1576C37.2991 15.2764 37.3752 15.3929 37.4402 15.5273C37.1743 15.3872 36.96 15.1659 36.8286 14.8955C36.7619 14.7562 36.7347 14.6012 36.7502 14.4475C36.7571 14.3672 36.7855 14.2904 36.8324 14.2249C36.8794 14.1595 36.943 14.1079 37.0168 14.0756Z" fill="#FDA16F"/>
</g>
</g>
<g style="mix-blend-mode:multiply">
<g style="mix-blend-mode:multiply">
<path d="M33.8491 14.4744C33.7376 14.8676 33.7117 15.2801 33.7729 15.6841C33.8037 15.8812 33.8625 16.0728 33.9476 16.2532C34.036 16.4413 34.137 16.6232 34.2501 16.7976C34.0664 16.6749 33.9097 16.5161 33.7896 16.3308C33.6694 16.1455 33.5882 15.9377 33.5511 15.72C33.5136 15.5012 33.5212 15.2771 33.5735 15.0613C33.6193 14.8472 33.7136 14.6464 33.8491 14.4744Z" fill="#FDA16F"/>
</g>
</g>
<g style="mix-blend-mode:multiply">
<g style="mix-blend-mode:multiply">
<path d="M37.1558 19.2081C37.0822 19.4735 37.0489 19.7484 37.0572 20.0236C37.0695 20.1498 37.1085 20.272 37.1715 20.3821C37.2454 20.5013 37.3326 20.6118 37.4314 20.7114C37.2727 20.6789 37.1288 20.5959 37.0213 20.4747C36.9139 20.3535 36.8486 20.2007 36.8354 20.0393C36.8228 19.8822 36.8466 19.7242 36.9049 19.5778C36.9599 19.4374 37.0456 19.3111 37.1558 19.2081Z" fill="#FDA16F"/>
</g>
</g>
<g style="mix-blend-mode:multiply">
<g style="mix-blend-mode:multiply">
<path d="M39.0085 19.067C39.0577 19.3426 39.0824 19.5935 39.1294 19.8399C39.1527 19.9624 39.1826 20.0836 39.219 20.2029C39.2604 20.3273 39.309 20.4493 39.3647 20.568C39.2392 20.4996 39.134 20.3991 39.06 20.2768C38.9881 20.1547 38.9374 20.0214 38.9099 19.8825C38.8857 19.745 38.8804 19.6048 38.8942 19.4658C38.9077 19.327 38.9465 19.1919 39.0085 19.067Z" fill="#FDA16F"/>
</g>
</g>
</svg>
