<svg width="48" height="48" viewBox="0 0 48 48" fill="none" xmlns="http://www.w3.org/2000/svg">
<circle cx="24" cy="24" r="24" fill="#00CCBF" fill-opacity="0.1"/>
<path d="M39 23.4912C39.0021 27.2724 37.622 30.9239 35.1195 33.7585C32.617 36.593 29.1647 38.415 25.4124 38.8815C21.6601 39.3481 17.8667 38.4269 14.7463 36.2915C11.6259 34.156 9.39363 30.9536 8.46979 27.2871C7.54594 23.6205 7.99422 19.7427 9.73023 16.3836C11.4662 13.0245 14.3702 10.4159 17.8956 9.04869C21.4209 7.68151 25.3244 7.65012 28.8713 8.96042C32.4182 10.2707 35.3637 12.8323 37.1536 16.1631C38.3641 18.4161 38.9985 20.9336 39 23.4912Z" fill="#62E0DA"/>
<path d="M16.9724 35.7267C16.8639 35.7266 16.7572 35.6983 16.6629 35.6446C15.8255 35.1707 15.0393 34.6118 14.3165 33.9767C14.1932 33.8659 14.1185 33.7109 14.1087 33.5454C14.0989 33.3799 14.1548 33.2172 14.2641 33.0926C14.3735 32.968 14.5276 32.8916 14.693 32.8799C14.8584 32.8682 15.0217 32.9221 15.1476 33.0301C15.8057 33.6079 16.5214 34.1166 17.2834 34.5483C17.4047 34.6167 17.4999 34.7235 17.5541 34.8518C17.6083 34.9802 17.6184 35.1228 17.5828 35.2575C17.5473 35.3922 17.4681 35.5113 17.3576 35.5962C17.2472 35.6811 17.1117 35.727 16.9724 35.7267Z" fill="#00CCBF"/>
<path d="M20.7624 19.7443C20.4997 21.6412 16.4181 21.3856 15.8278 22.6166C15.2375 23.8475 14.3809 27.7132 12.5524 28.703C11.5575 29.2454 10.4675 29.5912 9.34187 29.7216C7.83363 26.2936 7.61998 22.4349 8.74056 18.8613C9.86114 15.2878 12.2399 12.242 15.4355 10.289C15.1151 13.0425 15.8314 13.6615 17.9766 15.1876C20.6185 17.0665 21.0252 17.8475 20.7624 19.7443Z" fill="#00CCBF"/>
<path d="M29.5461 23.1961C30.0245 23.4002 31.4862 23.7274 32.2456 24.029C32.5309 24.1096 32.786 24.2726 32.9791 24.4975C33.1722 24.7224 33.2947 24.9993 33.3312 25.2934C33.4507 25.7484 34.1622 28.3766 32.7456 29.5424C31.3289 30.7082 28.9505 31.589 28.0488 33.5261C27.1472 35.4632 26.3705 36.434 25.3674 35.8959C24.3642 35.3578 24.2919 34.4234 25.8896 30.7676C26.8899 28.5062 23.7247 27.3317 24.8865 25.0926C25.3052 24.2688 26.0067 23.6236 26.8626 23.2753C27.7185 22.927 28.6712 22.8989 29.5461 23.1961Z" fill="#00CCBF"/>
<path d="M37.1536 16.1631C36.8009 16.0551 36.4157 15.9292 36.0018 15.7888C33.3384 14.8746 32.3126 18.5819 29.6563 17.4805C27 16.3791 26.6977 13.0389 27.0828 11.772C27.2376 11.3041 28.3389 9.72759 28.9112 8.97534C32.437 10.2966 35.365 12.8499 37.1536 16.1631Z" fill="#00CCBF"/>
</svg>
