<svg width="48" height="48" viewBox="0 0 48 48" fill="none" xmlns="http://www.w3.org/2000/svg">
<circle cx="24" cy="24" r="24" fill="#FE93A1" fill-opacity="0.1"/>
<path d="M16.4288 26.092C14.5094 27.2215 9.74926 30.4488 9.7068 30.4106C9.469 30.0709 9.00615 29.4764 8.54329 29.4764C8.08044 29.4764 7.96578 29.9902 8.00825 30.3724C8.08468 30.9244 8.883 32.2365 9.77899 32.2323C9.88752 32.2204 9.98874 32.1718 10.0659 32.0946C10.1431 32.0174 10.1917 31.9162 10.2036 31.8076C10.2353 31.4606 10.1518 31.1129 9.96583 30.8182C12.0423 29.8458 15.1422 28.4912 17.1847 27.3787C17.6263 27.1748 16.7982 25.8754 16.4288 26.092Z" fill="#E36172"/>
<path d="M27.3761 18.0196C28.3103 15.9984 30.3868 10.6394 30.4335 10.6564C30.8199 10.7965 31.5376 11.0258 31.9155 10.7626C32.2934 10.4993 32.1151 10.0025 31.856 9.71372C31.4781 9.30607 30.0895 8.68185 29.3422 9.19142C29.2589 9.25916 29.2009 9.35311 29.1778 9.45796C29.1547 9.56282 29.1677 9.67242 29.2148 9.76892C29.3855 10.0721 29.6511 10.3108 29.9706 10.4483C28.8156 12.4314 27.0406 15.3104 25.9875 17.3912C25.7752 17.8158 27.1935 18.4103 27.3761 18.0196Z" fill="#E36172"/>
<path d="M28.7263 29.3829C30.0639 31.1664 33.822 35.5317 33.771 35.5656C33.461 35.8374 32.9217 36.3597 32.9727 36.8395C33.0236 37.3194 33.5502 37.3703 33.9239 37.2642C34.4632 37.1283 35.6776 36.1898 35.5715 35.2981C35.5512 35.1968 35.499 35.1047 35.4226 35.0351C35.3462 34.9656 35.2496 34.9224 35.1468 34.9117C34.798 34.9226 34.4618 35.0446 34.1872 35.2599C32.9897 33.3066 31.2911 30.3766 29.9408 28.4657C29.6648 28.109 28.4673 29.0602 28.7263 29.3829Z" fill="#E36172"/>
<path d="M29.4609 25.5017C31.6435 25.9264 37.3421 26.7205 37.3336 26.7757C37.2869 27.2003 37.2317 27.9349 37.5757 28.2449C37.9196 28.5549 38.3613 28.2449 38.5778 27.9392C38.8921 27.4806 39.1723 25.9688 38.5014 25.3913C38.4171 25.3256 38.3132 25.2898 38.2063 25.2898C38.0993 25.2898 37.9955 25.3256 37.9111 25.3913C37.6583 25.6307 37.4886 25.9446 37.4271 26.2873C35.2317 25.6249 32.0172 24.5633 29.7539 24.0198C29.291 23.8966 29.0405 25.4168 29.4609 25.5017Z" fill="#E36172"/>
<path d="M18.8024 19.7988C16.968 18.5249 12.0082 15.6034 12.0464 15.5525C12.2503 15.1958 12.5942 14.5249 12.3946 14.1087C12.1951 13.6926 11.6812 13.786 11.3543 13.9941C10.8872 14.2955 10.0421 15.578 10.4243 16.389C10.477 16.4849 10.5609 16.56 10.662 16.6017C10.7632 16.6434 10.8756 16.6493 10.9806 16.6183C11.3078 16.4986 11.5868 16.2748 11.7747 15.9814C13.5284 17.4464 16.0762 19.6757 17.9531 21.06C18.3353 21.3403 19.1591 20.0409 18.8024 19.7988Z" fill="#E36172"/>
<path d="M20.3226 13.1109C23.4606 12.2616 26.9002 13.3317 29.4862 15.1661C31.9789 16.9326 34.5182 20.058 34.6626 23.2342C34.998 30.1219 27.7537 35.1666 22.0211 33.8205C15.9488 32.3894 11.7619 25.1833 13.8638 19.2851C14.3669 17.8137 15.2162 16.4848 16.3402 15.4103C17.4642 14.3358 18.83 13.5472 20.3226 13.1109Z" fill="#E36172"/>
<path d="M23.9195 33.107C21.0744 33.0433 18.4332 31.3108 16.7006 29.1366C15.0361 27.0389 13.6602 23.7862 14.3184 21.0685C15.7367 15.2 23.0744 12.7201 27.5629 15.2552C32.3315 17.9474 34.098 25.0219 30.8835 29.4933C30.0989 30.6113 29.0561 31.5235 27.8438 32.1525C26.6315 32.7816 25.2853 33.109 23.9195 33.107Z" fill="#FE93A1"/>
<path d="M20.8365 32.2195C20.3227 33.6293 19.2356 37.3448 19.2016 37.3363C18.9341 37.2599 18.4415 37.1495 18.1995 37.3363C17.9575 37.5232 18.1103 37.8544 18.3014 38.0328C18.5732 38.2875 19.5498 38.6272 20 38.2408C20.0481 38.1947 20.0805 38.1347 20.0927 38.0692C20.1049 38.0036 20.0962 37.936 20.0679 37.8756C19.9377 37.677 19.7449 37.5276 19.5201 37.451C20.1826 36.0582 21.2187 34.0242 21.8047 32.5719C21.9236 32.2704 20.9384 31.9519 20.8365 32.2195Z" fill="#FE93A1"/>
<path d="M16.416 24.0494C14.917 24.0792 11.0613 24.3976 11.0571 24.3679C11.0316 24.0877 10.9552 23.5908 10.6834 23.438C10.4116 23.2851 10.1653 23.5399 10.0719 23.7819C9.93179 24.1301 9.96576 25.162 10.4966 25.4592C10.5629 25.4886 10.6371 25.4954 10.7077 25.4785C10.7783 25.4616 10.8413 25.422 10.8872 25.3658C11.0155 25.1725 11.0794 24.9437 11.0698 24.7119C12.607 24.8308 14.8916 25.0558 16.4457 25.0856C16.7642 25.0813 16.709 24.0452 16.416 24.0494Z" fill="#FE93A1"/>
<path d="M19.4437 16.8434C18.7388 15.5227 16.7048 12.2276 16.7345 12.2106C16.9681 12.0577 17.38 11.7859 17.397 11.4547C17.4139 11.1235 17.0657 11.0301 16.8067 11.064C16.4373 11.098 15.5328 11.5991 15.5073 12.2021C15.5104 12.2734 15.5371 12.3418 15.5832 12.3963C15.6294 12.4509 15.6923 12.4886 15.7621 12.5036C15.9955 12.5352 16.2328 12.4889 16.4373 12.3719C17.0318 13.7945 17.8556 15.9219 18.5605 17.3317C18.6836 17.6204 19.5796 17.0981 19.4437 16.8434Z" fill="#FE93A1"/>
<path d="M23.5881 17.2807C23.6858 15.786 23.69 11.9133 23.7197 11.9133C24 11.9133 24.5053 11.8793 24.6794 11.6203C24.8535 11.3613 24.62 11.0937 24.3864 10.9791C24.0509 10.8135 23.0191 10.7583 22.6879 11.2593C22.6525 11.3227 22.6396 11.3962 22.6511 11.4679C22.6627 11.5395 22.6981 11.6052 22.7516 11.6543C22.933 11.803 23.1583 11.8881 23.3928 11.8963C23.1465 13.4207 22.7303 15.6586 22.569 17.2212C22.5307 17.5397 23.5669 17.5694 23.5881 17.2807Z" fill="#FE93A1"/>
<path d="M29.7242 21.5144C31.0958 20.9071 34.5269 19.1109 34.5439 19.1406C34.6755 19.3869 34.9388 19.8158 35.2488 19.854C35.5588 19.8923 35.6734 19.5568 35.6734 19.2978C35.6734 18.9198 35.2488 17.9814 34.6288 17.9177C34.5572 17.9151 34.4868 17.9368 34.429 17.9791C34.3712 18.0215 34.3294 18.0822 34.3103 18.1512C34.2649 18.3819 34.2931 18.6211 34.391 18.8349C32.9303 19.3232 30.7519 19.9942 29.2954 20.5802C29.0066 20.6991 29.461 21.629 29.7242 21.5144Z" fill="#FE93A1"/>
<path d="M27.5416 30.627C28.0851 32.0241 29.7115 35.5359 29.6648 35.5486C29.4142 35.6717 28.9684 35.9138 28.9217 36.2195C28.875 36.5253 29.1977 36.6696 29.4567 36.6781C29.8304 36.6781 30.7858 36.3002 30.8835 35.7057C30.889 35.6338 30.8703 35.562 30.8302 35.502C30.7902 35.442 30.7312 35.3971 30.6627 35.3745C30.4358 35.3147 30.1956 35.3311 29.979 35.4212C29.5544 33.9392 28.9939 31.7311 28.48 30.2491C28.3909 29.9476 27.4142 30.3553 27.5416 30.627Z" fill="#FE93A1"/>
<path d="M19.537 28.2662C19.0277 28.228 18.5327 28.0804 18.0856 27.8334C17.6386 27.5865 17.2501 27.2459 16.9467 26.8351C16.3437 26.0835 15.8511 24.9115 16.0974 23.9349C16.6028 21.8117 19.2398 20.9369 20.8534 21.8456C22.5519 22.8138 23.2016 25.3616 22.0509 26.9625C21.768 27.3664 21.3917 27.6959 20.954 27.9229C20.5162 28.1499 20.0301 28.2677 19.537 28.2662Z" fill="#E36172"/>
<path d="M24.5688 26.8904C24.6733 26.5175 24.8561 26.1712 25.1051 25.8747C25.3541 25.5781 25.6635 25.3381 26.0126 25.1706C26.3575 24.9756 26.74 24.8562 27.1346 24.8203C27.5292 24.7845 27.9269 24.8329 28.3014 24.9625C29.7961 25.6504 30.0679 27.7481 29.1507 28.814C28.8995 29.087 28.5965 29.3072 28.2593 29.4619C27.9221 29.6166 27.5575 29.7025 27.1867 29.7148C26.8159 29.727 26.4464 29.6653 26.0998 29.5333C25.7531 29.4012 25.4362 29.2014 25.1676 28.9456C24.9093 28.6768 24.72 28.3494 24.6158 27.9915C24.5115 27.6337 24.4954 27.2558 24.5688 26.8904Z" fill="#E36172"/>
<path d="M24.0934 21.0474C24.1602 20.8074 24.2778 20.5846 24.4383 20.3941C24.5987 20.2036 24.7983 20.0499 25.0234 19.9433C25.2441 19.8183 25.4888 19.7415 25.7413 19.7181C25.9939 19.6947 26.2485 19.7251 26.4884 19.8074C26.7014 19.9199 26.8873 20.0773 27.0334 20.2688C27.1794 20.4603 27.282 20.6812 27.3342 20.9164C27.3863 21.1515 27.3866 21.3951 27.3352 21.6304C27.2837 21.8657 27.1817 22.0869 27.0362 22.2788C26.8752 22.4529 26.6813 22.5934 26.4657 22.692C26.25 22.7906 26.017 22.8455 25.78 22.8534C25.543 22.8613 25.3068 22.8221 25.0851 22.738C24.8634 22.654 24.6605 22.5268 24.4884 22.3637C24.3217 22.1921 24.1989 21.9829 24.1301 21.7538C24.0614 21.5247 24.0488 21.2824 24.0934 21.0474Z" fill="#E36172"/>
</svg>
