<svg width="48" height="48" viewBox="0 0 48 48" fill="none" xmlns="http://www.w3.org/2000/svg">
<circle cx="24" cy="24" r="24" fill="#67C57B" fill-opacity="0.1"/>
<path d="M25.4525 24.3357C24.4774 24.3357 23.5606 23.9559 22.871 23.2664L16.8369 17.2322C16.1473 16.5427 15.7676 15.6259 15.7676 14.6507C15.7676 13.6756 16.1473 12.7588 16.8369 12.0693C17.5264 11.3798 18.4432 11 19.4183 11C20.3934 11 21.3103 11.3798 21.9998 12.0693L28.034 18.1035C29.4574 19.5269 29.4574 21.843 28.034 23.2664C27.3445 23.9559 26.4276 24.3357 25.4525 24.3357Z" fill="#FFCA28"/>
<path d="M29.6384 36.9999C29.0248 36.9999 28.4193 36.839 27.8736 36.5239L27.6835 36.4142C25.9926 35.4379 25.4112 33.268 26.3874 31.577L30.7639 23.9967C31.7403 22.3057 33.9102 21.7243 35.601 22.7006L35.7911 22.8103C36.6102 23.2832 37.1962 24.0468 37.441 24.9604C37.6857 25.874 37.5601 26.8283 37.0872 27.6474L32.7107 35.2278C32.2378 36.0469 31.4741 36.6328 30.5606 36.8776C30.2556 36.9595 29.9459 36.9999 29.6384 36.9999Z" fill="#FFD5D5"/>
<path d="M37.441 24.9605C37.1962 24.0469 36.6103 23.2833 35.7912 22.8105L35.6011 22.7007C35.1884 22.4624 34.7471 22.3176 34.3016 22.2584C34.7403 22.6938 35.0587 23.2386 35.2229 23.8515C35.4676 24.7651 35.342 25.7194 34.8691 26.5385L30.4926 34.1189C30.0197 34.938 29.256 35.5239 28.3425 35.7687C28.0375 35.8505 27.7278 35.8909 27.4203 35.8909C27.2658 35.8909 27.1118 35.8806 26.9591 35.8603C27.1711 36.0709 27.4129 36.2581 27.6836 36.4143L27.8737 36.5241C28.4193 36.8391 29.0249 37 29.6385 37C29.946 37 30.2557 36.9596 30.5607 36.8779C31.4743 36.633 32.2378 36.0472 32.7108 35.228L37.0873 27.6477C37.5602 26.8284 37.6858 25.8742 37.441 24.9605Z" fill="#DDB8B8"/>
<path d="M34.691 31.7978L28.3677 28.1471L30.7639 23.9967C31.2369 23.1776 32.0005 22.5916 32.914 22.3469C33.8277 22.1021 34.782 22.2277 35.601 22.7006L35.7409 22.7814C36.5794 23.2653 37.208 24.0564 37.4497 24.9938C37.6826 25.8973 37.5544 26.8383 37.0872 27.6474L34.691 31.7978Z" fill="#67C57B"/>
<path d="M37.4498 24.9939C37.2081 24.0564 36.5794 23.2654 35.741 22.7814L35.6011 22.7006C35.189 22.4627 34.7426 22.3129 34.2845 22.2537C34.7369 22.7009 35.0705 23.2599 35.2316 23.8848C35.4645 24.7882 35.3363 25.7292 34.8691 26.5383L32.5471 30.5601L34.691 31.7979L37.0872 27.6475C37.5544 26.8383 37.6827 25.8973 37.4498 24.9939Z" fill="#40AE57"/>
<path d="M28.034 18.1035C26.7784 16.8479 23.1517 13.2211 21.9998 12.0693C21.3103 11.3798 20.3935 11 19.4184 11C19.0362 11 18.6633 11.0591 18.3093 11.1716C18.8587 11.346 19.3623 11.65 19.7816 12.0693L22.773 15.0606C23.1052 15.3928 23.1052 15.9314 22.773 16.2636L19.3206 19.7159L20.3874 20.7827L23.8397 17.3303C24.1719 16.9981 24.7105 16.9981 25.0427 17.3303L25.8159 18.1035C27.2393 19.5269 27.2393 21.843 25.8159 23.2664C25.3966 23.6858 24.8929 23.9897 24.3435 24.1642C24.6976 24.2766 25.0705 24.3357 25.4526 24.3357C26.4278 24.3357 27.3446 23.956 28.0341 23.2665C29.4574 21.8429 29.4574 19.5269 28.034 18.1035Z" fill="#FFA000"/>
<path d="M16.9225 36.0081C13.6568 36.0081 11 33.3513 11 30.0857C11 26.82 13.6568 24.1632 16.9225 24.1632C20.1881 24.1632 22.8448 26.82 22.8448 30.0857C22.8448 33.3513 20.1881 36.0081 16.9225 36.0081Z" fill="#A3E2B1"/>
<path d="M18.3954 24.3486C19.0904 24.904 19.6581 25.6125 20.0469 26.4223C20.2302 26.8042 20.0917 27.2627 19.7249 27.4746L11.4178 32.2706C11.6327 32.81 11.9248 33.3106 12.2801 33.7588L20.4622 29.0349C20.5548 28.9815 20.6274 29.0252 20.6246 29.1321C20.5418 32.3262 17.9178 34.899 14.7042 34.899C14.1959 34.899 13.7023 34.8345 13.2312 34.7135C14.2773 35.5496 15.6115 36.0393 17.0589 36.0065C20.1553 35.9364 22.6984 33.4537 22.8386 30.3597C22.969 27.4832 21.035 25.0268 18.3954 24.3486Z" fill="#67C57B"/>
</svg>
