<svg width="32" height="32" viewBox="0 0 32 32" fill="none" xmlns="http://www.w3.org/2000/svg">
<circle cx="16" cy="16" r="16" fill="#FF9E6B" fill-opacity="0.1"/>
<mask id="path-2-outside-1" maskUnits="userSpaceOnUse" x="7" y="7" width="18" height="18" fill="black">
<rect fill="white" x="7" y="7" width="18" height="18"/>
<path d="M23.6525 17.0364C23.4113 16.9717 23.1478 17.1091 23.0784 17.3679L23.0676 17.4084L21.983 17.1177C22.0505 16.7553 22.0862 16.3817 22.0862 16C22.0862 15.6182 22.0505 15.2446 21.9829 14.8821L23.0675 14.5915L23.0784 14.632C23.1477 14.8908 23.4113 15.0281 23.6525 14.9635C23.9025 14.8965 24.051 14.6394 23.9839 14.3894L23.7196 13.4028C23.6525 13.1528 23.3957 13.0043 23.1455 13.0714C22.8954 13.1384 22.747 13.3954 22.814 13.6455L22.8249 13.686L21.74 13.9767C21.4871 13.2616 21.1045 12.6075 20.6201 12.0428L21.4164 11.2465L21.4461 11.2762C21.6291 11.4592 21.9259 11.4593 22.109 11.2762C22.292 11.0931 22.292 10.7964 22.109 10.6133L21.3868 9.8911C21.2038 9.70804 20.9069 9.70804 20.7239 9.8911C20.5408 10.0742 20.5408 10.3709 20.7239 10.554L20.7535 10.5837L19.9573 11.3799C19.3925 10.8955 18.7384 10.5129 18.0233 10.2601L18.3139 9.17519L18.3544 9.18604C18.6143 9.25566 18.8643 9.09454 18.9285 8.8546C18.9955 8.60454 18.8472 8.3475 18.5971 8.2805L17.6106 8.01616C17.3605 7.94913 17.1034 8.09757 17.0365 8.3476C16.9695 8.59766 17.1179 8.85469 17.3679 8.92169L17.4084 8.93254L17.1178 10.0172C16.7553 9.9496 16.3818 9.91391 16 9.91391C15.6183 9.91391 15.2448 9.9496 14.8823 10.0172L14.5917 8.93254L14.6322 8.92169C14.8822 8.85469 15.0306 8.59766 14.9636 8.3476C14.8966 8.0975 14.6396 7.94907 14.3895 8.0161L13.403 8.28044C13.1529 8.34744 13.0046 8.60447 13.0716 8.85454C13.1358 9.0945 13.3858 9.25563 13.6457 9.18597L13.6862 9.17513L13.9768 10.26C13.2618 10.5128 12.6076 10.8955 12.0428 11.3799L11.2466 10.5836L11.2762 10.5539C11.4593 10.3709 11.4593 10.0741 11.2762 9.89104C11.0932 9.70797 10.7964 9.70797 10.6133 9.89104L9.89112 10.6132C9.70806 10.7963 9.70806 11.0931 9.89112 11.2761C10.0742 11.4592 10.371 11.4592 10.554 11.2761L10.5837 11.2465L11.38 12.0428C10.8956 12.6074 10.513 13.2616 10.2602 13.9766L9.17522 13.6859L9.18606 13.6454C9.25306 13.3954 9.10468 13.1383 8.85462 13.0713C8.60443 13.0043 8.34753 13.1527 8.28053 13.4028L8.01612 14.3894C7.94912 14.6395 8.0975 14.8965 8.34756 14.9635C8.58881 15.0282 8.85231 14.8908 8.92165 14.632L8.9325 14.5915L10.0171 14.8822C9.94956 15.2447 9.91384 15.6182 9.91384 16C9.91384 16.3818 9.94953 16.7553 10.0171 17.1178L8.93246 17.4084L8.92162 17.3679C8.85228 17.1091 8.58875 16.9718 8.34753 17.0365C8.09746 17.1035 7.94909 17.3605 8.01609 17.6105L8.28043 18.5971C8.34746 18.8471 8.60434 18.9956 8.85453 18.9285C9.10459 18.8615 9.25297 18.6045 9.18597 18.3544L9.17512 18.3139L10.26 18.0232C10.5128 18.7383 10.8955 19.3925 11.3798 19.9572L10.5836 20.7535L10.5539 20.7239C10.3709 20.5408 10.0741 20.5408 9.891 20.7239C9.70793 20.9069 9.70793 21.2037 9.891 21.3868L10.6132 22.109C10.7962 22.292 11.093 22.292 11.2761 22.109C11.4592 21.9259 11.4592 21.6291 11.2761 21.4461L11.2464 21.4164L12.0427 20.6201C12.6074 21.1045 13.2616 21.4872 13.9767 21.74L13.686 22.8249L13.6455 22.814C13.3857 22.7444 13.1357 22.9055 13.0714 23.1455C13.0044 23.3955 13.1528 23.6526 13.4029 23.7196L14.3894 23.9839C14.6395 24.0509 14.8965 23.9025 14.9635 23.6525C15.0305 23.4024 14.8821 23.1454 14.6321 23.0784L14.5916 23.0675L14.8822 21.9829C15.2447 22.0505 15.6182 22.0862 15.9999 22.0862C16.3817 22.0862 16.7552 22.0505 17.1177 21.9829L17.4083 23.0675L17.3678 23.0784C17.1178 23.1454 16.9694 23.4024 17.0364 23.6525C17.1034 23.9025 17.3604 24.0509 17.6105 23.9839L18.597 23.7196C18.8471 23.6526 18.9954 23.3955 18.9284 23.1455C18.8642 22.9055 18.6142 22.7444 18.3544 22.814L18.3139 22.8249L18.0232 21.74C18.7383 21.4872 19.3924 21.1045 19.9572 20.6201L20.7535 21.4164L20.7238 21.4461C20.5407 21.6291 20.5407 21.9259 20.7238 22.109C20.9068 22.292 21.2036 22.292 21.3867 22.109L22.1089 21.3868C22.292 21.2037 22.292 20.9069 22.1089 20.7239C21.9258 20.5408 21.629 20.5408 21.446 20.7239L21.4163 20.7535L20.62 19.9572C21.1044 19.3925 21.4871 18.7383 21.7399 18.0232L22.8248 18.3139L22.8139 18.3544C22.7469 18.6045 22.8953 18.8615 23.1454 18.9285C23.3955 18.9956 23.6525 18.8471 23.7195 18.5971L23.9838 17.6105C24.051 17.3605 23.9026 17.1034 23.6525 17.0364ZM16 21.1487C13.1611 21.1487 10.8514 18.839 10.8514 16C10.8514 13.161 13.1611 10.8514 16 10.8514C18.839 10.8514 21.1487 13.161 21.1487 16C21.1487 18.839 18.839 21.1487 16 21.1487Z"/>
</mask>
<path d="M23.6525 17.0364C23.4113 16.9717 23.1478 17.1091 23.0784 17.3679L23.0676 17.4084L21.983 17.1177C22.0505 16.7553 22.0862 16.3817 22.0862 16C22.0862 15.6182 22.0505 15.2446 21.9829 14.8821L23.0675 14.5915L23.0784 14.632C23.1477 14.8908 23.4113 15.0281 23.6525 14.9635C23.9025 14.8965 24.051 14.6394 23.9839 14.3894L23.7196 13.4028C23.6525 13.1528 23.3957 13.0043 23.1455 13.0714C22.8954 13.1384 22.747 13.3954 22.814 13.6455L22.8249 13.686L21.74 13.9767C21.4871 13.2616 21.1045 12.6075 20.6201 12.0428L21.4164 11.2465L21.4461 11.2762C21.6291 11.4592 21.9259 11.4593 22.109 11.2762C22.292 11.0931 22.292 10.7964 22.109 10.6133L21.3868 9.8911C21.2038 9.70804 20.9069 9.70804 20.7239 9.8911C20.5408 10.0742 20.5408 10.3709 20.7239 10.554L20.7535 10.5837L19.9573 11.3799C19.3925 10.8955 18.7384 10.5129 18.0233 10.2601L18.3139 9.17519L18.3544 9.18604C18.6143 9.25566 18.8643 9.09454 18.9285 8.8546C18.9955 8.60454 18.8472 8.3475 18.5971 8.2805L17.6106 8.01616C17.3605 7.94913 17.1034 8.09757 17.0365 8.3476C16.9695 8.59766 17.1179 8.85469 17.3679 8.92169L17.4084 8.93254L17.1178 10.0172C16.7553 9.9496 16.3818 9.91391 16 9.91391C15.6183 9.91391 15.2448 9.9496 14.8823 10.0172L14.5917 8.93254L14.6322 8.92169C14.8822 8.85469 15.0306 8.59766 14.9636 8.3476C14.8966 8.0975 14.6396 7.94907 14.3895 8.0161L13.403 8.28044C13.1529 8.34744 13.0046 8.60447 13.0716 8.85454C13.1358 9.0945 13.3858 9.25563 13.6457 9.18597L13.6862 9.17513L13.9768 10.26C13.2618 10.5128 12.6076 10.8955 12.0428 11.3799L11.2466 10.5836L11.2762 10.5539C11.4593 10.3709 11.4593 10.0741 11.2762 9.89104C11.0932 9.70797 10.7964 9.70797 10.6133 9.89104L9.89112 10.6132C9.70806 10.7963 9.70806 11.0931 9.89112 11.2761C10.0742 11.4592 10.371 11.4592 10.554 11.2761L10.5837 11.2465L11.38 12.0428C10.8956 12.6074 10.513 13.2616 10.2602 13.9766L9.17522 13.6859L9.18606 13.6454C9.25306 13.3954 9.10468 13.1383 8.85462 13.0713C8.60443 13.0043 8.34753 13.1527 8.28053 13.4028L8.01612 14.3894C7.94912 14.6395 8.0975 14.8965 8.34756 14.9635C8.58881 15.0282 8.85231 14.8908 8.92165 14.632L8.9325 14.5915L10.0171 14.8822C9.94956 15.2447 9.91384 15.6182 9.91384 16C9.91384 16.3818 9.94953 16.7553 10.0171 17.1178L8.93246 17.4084L8.92162 17.3679C8.85228 17.1091 8.58875 16.9718 8.34753 17.0365C8.09746 17.1035 7.94909 17.3605 8.01609 17.6105L8.28043 18.5971C8.34746 18.8471 8.60434 18.9956 8.85453 18.9285C9.10459 18.8615 9.25297 18.6045 9.18597 18.3544L9.17512 18.3139L10.26 18.0232C10.5128 18.7383 10.8955 19.3925 11.3798 19.9572L10.5836 20.7535L10.5539 20.7239C10.3709 20.5408 10.0741 20.5408 9.891 20.7239C9.70793 20.9069 9.70793 21.2037 9.891 21.3868L10.6132 22.109C10.7962 22.292 11.093 22.292 11.2761 22.109C11.4592 21.9259 11.4592 21.6291 11.2761 21.4461L11.2464 21.4164L12.0427 20.6201C12.6074 21.1045 13.2616 21.4872 13.9767 21.74L13.686 22.8249L13.6455 22.814C13.3857 22.7444 13.1357 22.9055 13.0714 23.1455C13.0044 23.3955 13.1528 23.6526 13.4029 23.7196L14.3894 23.9839C14.6395 24.0509 14.8965 23.9025 14.9635 23.6525C15.0305 23.4024 14.8821 23.1454 14.6321 23.0784L14.5916 23.0675L14.8822 21.9829C15.2447 22.0505 15.6182 22.0862 15.9999 22.0862C16.3817 22.0862 16.7552 22.0505 17.1177 21.9829L17.4083 23.0675L17.3678 23.0784C17.1178 23.1454 16.9694 23.4024 17.0364 23.6525C17.1034 23.9025 17.3604 24.0509 17.6105 23.9839L18.597 23.7196C18.8471 23.6526 18.9954 23.3955 18.9284 23.1455C18.8642 22.9055 18.6142 22.7444 18.3544 22.814L18.3139 22.8249L18.0232 21.74C18.7383 21.4872 19.3924 21.1045 19.9572 20.6201L20.7535 21.4164L20.7238 21.4461C20.5407 21.6291 20.5407 21.9259 20.7238 22.109C20.9068 22.292 21.2036 22.292 21.3867 22.109L22.1089 21.3868C22.292 21.2037 22.292 20.9069 22.1089 20.7239C21.9258 20.5408 21.629 20.5408 21.446 20.7239L21.4163 20.7535L20.62 19.9572C21.1044 19.3925 21.4871 18.7383 21.7399 18.0232L22.8248 18.3139L22.8139 18.3544C22.7469 18.6045 22.8953 18.8615 23.1454 18.9285C23.3955 18.9956 23.6525 18.8471 23.7195 18.5971L23.9838 17.6105C24.051 17.3605 23.9026 17.1034 23.6525 17.0364ZM16 21.1487C13.1611 21.1487 10.8514 18.839 10.8514 16C10.8514 13.161 13.1611 10.8514 16 10.8514C18.839 10.8514 21.1487 13.161 21.1487 16C21.1487 18.839 18.839 21.1487 16 21.1487Z" fill="#FF9E6B"/>
<path d="M23.6525 17.0364C23.4113 16.9717 23.1478 17.1091 23.0784 17.3679L23.0676 17.4084L21.983 17.1177C22.0505 16.7553 22.0862 16.3817 22.0862 16C22.0862 15.6182 22.0505 15.2446 21.9829 14.8821L23.0675 14.5915L23.0784 14.632C23.1477 14.8908 23.4113 15.0281 23.6525 14.9635C23.9025 14.8965 24.051 14.6394 23.9839 14.3894L23.7196 13.4028C23.6525 13.1528 23.3957 13.0043 23.1455 13.0714C22.8954 13.1384 22.747 13.3954 22.814 13.6455L22.8249 13.686L21.74 13.9767C21.4871 13.2616 21.1045 12.6075 20.6201 12.0428L21.4164 11.2465L21.4461 11.2762C21.6291 11.4592 21.9259 11.4593 22.109 11.2762C22.292 11.0931 22.292 10.7964 22.109 10.6133L21.3868 9.8911C21.2038 9.70804 20.9069 9.70804 20.7239 9.8911C20.5408 10.0742 20.5408 10.3709 20.7239 10.554L20.7535 10.5837L19.9573 11.3799C19.3925 10.8955 18.7384 10.5129 18.0233 10.2601L18.3139 9.17519L18.3544 9.18604C18.6143 9.25566 18.8643 9.09454 18.9285 8.8546C18.9955 8.60454 18.8472 8.3475 18.5971 8.2805L17.6106 8.01616C17.3605 7.94913 17.1034 8.09757 17.0365 8.3476C16.9695 8.59766 17.1179 8.85469 17.3679 8.92169L17.4084 8.93254L17.1178 10.0172C16.7553 9.9496 16.3818 9.91391 16 9.91391C15.6183 9.91391 15.2448 9.9496 14.8823 10.0172L14.5917 8.93254L14.6322 8.92169C14.8822 8.85469 15.0306 8.59766 14.9636 8.3476C14.8966 8.0975 14.6396 7.94907 14.3895 8.0161L13.403 8.28044C13.1529 8.34744 13.0046 8.60447 13.0716 8.85454C13.1358 9.0945 13.3858 9.25563 13.6457 9.18597L13.6862 9.17513L13.9768 10.26C13.2618 10.5128 12.6076 10.8955 12.0428 11.3799L11.2466 10.5836L11.2762 10.5539C11.4593 10.3709 11.4593 10.0741 11.2762 9.89104C11.0932 9.70797 10.7964 9.70797 10.6133 9.89104L9.89112 10.6132C9.70806 10.7963 9.70806 11.0931 9.89112 11.2761C10.0742 11.4592 10.371 11.4592 10.554 11.2761L10.5837 11.2465L11.38 12.0428C10.8956 12.6074 10.513 13.2616 10.2602 13.9766L9.17522 13.6859L9.18606 13.6454C9.25306 13.3954 9.10468 13.1383 8.85462 13.0713C8.60443 13.0043 8.34753 13.1527 8.28053 13.4028L8.01612 14.3894C7.94912 14.6395 8.0975 14.8965 8.34756 14.9635C8.58881 15.0282 8.85231 14.8908 8.92165 14.632L8.9325 14.5915L10.0171 14.8822C9.94956 15.2447 9.91384 15.6182 9.91384 16C9.91384 16.3818 9.94953 16.7553 10.0171 17.1178L8.93246 17.4084L8.92162 17.3679C8.85228 17.1091 8.58875 16.9718 8.34753 17.0365C8.09746 17.1035 7.94909 17.3605 8.01609 17.6105L8.28043 18.5971C8.34746 18.8471 8.60434 18.9956 8.85453 18.9285C9.10459 18.8615 9.25297 18.6045 9.18597 18.3544L9.17512 18.3139L10.26 18.0232C10.5128 18.7383 10.8955 19.3925 11.3798 19.9572L10.5836 20.7535L10.5539 20.7239C10.3709 20.5408 10.0741 20.5408 9.891 20.7239C9.70793 20.9069 9.70793 21.2037 9.891 21.3868L10.6132 22.109C10.7962 22.292 11.093 22.292 11.2761 22.109C11.4592 21.9259 11.4592 21.6291 11.2761 21.4461L11.2464 21.4164L12.0427 20.6201C12.6074 21.1045 13.2616 21.4872 13.9767 21.74L13.686 22.8249L13.6455 22.814C13.3857 22.7444 13.1357 22.9055 13.0714 23.1455C13.0044 23.3955 13.1528 23.6526 13.4029 23.7196L14.3894 23.9839C14.6395 24.0509 14.8965 23.9025 14.9635 23.6525C15.0305 23.4024 14.8821 23.1454 14.6321 23.0784L14.5916 23.0675L14.8822 21.9829C15.2447 22.0505 15.6182 22.0862 15.9999 22.0862C16.3817 22.0862 16.7552 22.0505 17.1177 21.9829L17.4083 23.0675L17.3678 23.0784C17.1178 23.1454 16.9694 23.4024 17.0364 23.6525C17.1034 23.9025 17.3604 24.0509 17.6105 23.9839L18.597 23.7196C18.8471 23.6526 18.9954 23.3955 18.9284 23.1455C18.8642 22.9055 18.6142 22.7444 18.3544 22.814L18.3139 22.8249L18.0232 21.74C18.7383 21.4872 19.3924 21.1045 19.9572 20.6201L20.7535 21.4164L20.7238 21.4461C20.5407 21.6291 20.5407 21.9259 20.7238 22.109C20.9068 22.292 21.2036 22.292 21.3867 22.109L22.1089 21.3868C22.292 21.2037 22.292 20.9069 22.1089 20.7239C21.9258 20.5408 21.629 20.5408 21.446 20.7239L21.4163 20.7535L20.62 19.9572C21.1044 19.3925 21.4871 18.7383 21.7399 18.0232L22.8248 18.3139L22.8139 18.3544C22.7469 18.6045 22.8953 18.8615 23.1454 18.9285C23.3955 18.9956 23.6525 18.8471 23.7195 18.5971L23.9838 17.6105C24.051 17.3605 23.9026 17.1034 23.6525 17.0364ZM16 21.1487C13.1611 21.1487 10.8514 18.839 10.8514 16C10.8514 13.161 13.1611 10.8514 16 10.8514C18.839 10.8514 21.1487 13.161 21.1487 16C21.1487 18.839 18.839 21.1487 16 21.1487Z" stroke="#FF9E6B" stroke-width="0.4" mask="url(#path-2-outside-1)"/>
<path d="M16.4688 17.9264C16.7829 17.9264 17.0375 17.6718 17.0375 17.3577C17.0375 17.0435 16.7829 16.7889 16.4688 16.7889C16.1546 16.7889 15.9 17.0435 15.9 17.3577C15.9 17.6718 16.1546 17.9264 16.4688 17.9264Z" fill="white"/>
<path d="M16.4688 17.9264C16.7829 17.9264 17.0375 17.6718 17.0375 17.3577C17.0375 17.0435 16.7829 16.7889 16.4688 16.7889C16.1546 16.7889 15.9 17.0435 15.9 17.3577C15.9 17.6718 16.1546 17.9264 16.4688 17.9264Z" fill="#FF9E6B"/>
<path d="M16.4688 17.9264C16.7829 17.9264 17.0375 17.6718 17.0375 17.3577C17.0375 17.0435 16.7829 16.7889 16.4688 16.7889C16.1546 16.7889 15.9 17.0435 15.9 17.3577C15.9 17.6718 16.1546 17.9264 16.4688 17.9264Z" stroke="#FF9E6B" stroke-width="0.2"/>
<path d="M16.4688 15.2597C16.7829 15.2597 17.0375 15.0051 17.0375 14.691C17.0375 14.3769 16.7829 14.1222 16.4688 14.1222C16.1546 14.1222 15.9 14.3769 15.9 14.691C15.9 15.0051 16.1546 15.2597 16.4688 15.2597Z" fill="white"/>
<path d="M16.4688 15.2597C16.7829 15.2597 17.0375 15.0051 17.0375 14.691C17.0375 14.3769 16.7829 14.1222 16.4688 14.1222C16.1546 14.1222 15.9 14.3769 15.9 14.691C15.9 15.0051 16.1546 15.2597 16.4688 15.2597Z" fill="#FF9E6B"/>
<path d="M16.4688 15.2597C16.7829 15.2597 17.0375 15.0051 17.0375 14.691C17.0375 14.3769 16.7829 14.1222 16.4688 14.1222C16.1546 14.1222 15.9 14.3769 15.9 14.691C15.9 15.0051 16.1546 15.2597 16.4688 15.2597Z" stroke="#FF9E6B" stroke-width="0.2"/>
<path d="M18.4852 14.0837C18.7993 14.0837 19.054 13.8291 19.054 13.515C19.054 13.2009 18.7993 12.9462 18.4852 12.9462C18.1711 12.9462 17.9165 13.2009 17.9165 13.515C17.9165 13.8291 18.1711 14.0837 18.4852 14.0837Z" fill="white"/>
<path d="M18.4852 14.0837C18.7993 14.0837 19.054 13.8291 19.054 13.515C19.054 13.2009 18.7993 12.9462 18.4852 12.9462C18.1711 12.9462 17.9165 13.2009 17.9165 13.515C17.9165 13.8291 18.1711 14.0837 18.4852 14.0837Z" fill="#FF9E6B"/>
<path d="M18.4852 14.0837C18.7993 14.0837 19.054 13.8291 19.054 13.515C19.054 13.2009 18.7993 12.9462 18.4852 12.9462C18.1711 12.9462 17.9165 13.2009 17.9165 13.515C17.9165 13.8291 18.1711 14.0837 18.4852 14.0837Z" stroke="#FF9E6B" stroke-width="0.2"/>
<path d="M13.5148 19.0541C13.8289 19.0541 14.0835 18.7994 14.0835 18.4853C14.0835 18.1712 13.8289 17.9166 13.5148 17.9166C13.2007 17.9166 12.946 18.1712 12.946 18.4853C12.946 18.7994 13.2007 19.0541 13.5148 19.0541Z" fill="white"/>
<path d="M13.5148 19.0541C13.8289 19.0541 14.0835 18.7994 14.0835 18.4853C14.0835 18.1712 13.8289 17.9166 13.5148 17.9166C13.2007 17.9166 12.946 18.1712 12.946 18.4853C12.946 18.7994 13.2007 19.0541 13.5148 19.0541Z" fill="#FF9E6B"/>
<path d="M13.5148 19.0541C13.8289 19.0541 14.0835 18.7994 14.0835 18.4853C14.0835 18.1712 13.8289 17.9166 13.5148 17.9166C13.2007 17.9166 12.946 18.1712 12.946 18.4853C12.946 18.7994 13.2007 19.0541 13.5148 19.0541Z" stroke="#FF9E6B" stroke-width="0.2"/>
<path d="M18.4852 19.0541C18.7993 19.0541 19.054 18.7994 19.054 18.4853C19.054 18.1712 18.7993 17.9166 18.4852 17.9166C18.1711 17.9166 17.9165 18.1712 17.9165 18.4853C17.9165 18.7994 18.1711 19.0541 18.4852 19.0541Z" fill="white"/>
<path d="M18.4852 19.0541C18.7993 19.0541 19.054 18.7994 19.054 18.4853C19.054 18.1712 18.7993 17.9166 18.4852 17.9166C18.1711 17.9166 17.9165 18.1712 17.9165 18.4853C17.9165 18.7994 18.1711 19.0541 18.4852 19.0541Z" fill="#FF9E6B"/>
<path d="M18.4852 19.0541C18.7993 19.0541 19.054 18.7994 19.054 18.4853C19.054 18.1712 18.7993 17.9166 18.4852 17.9166C18.1711 17.9166 17.9165 18.1712 17.9165 18.4853C17.9165 18.7994 18.1711 19.0541 18.4852 19.0541Z" stroke="#FF9E6B" stroke-width="0.2"/>
<path d="M13.5148 14.0837C13.8289 14.0837 14.0835 13.8291 14.0835 13.515C14.0835 13.2009 13.8289 12.9462 13.5148 12.9462C13.2007 12.9462 12.946 13.2009 12.946 13.515C12.946 13.8291 13.2007 14.0837 13.5148 14.0837Z" fill="white"/>
<path d="M13.5148 14.0837C13.8289 14.0837 14.0835 13.8291 14.0835 13.515C14.0835 13.2009 13.8289 12.9462 13.5148 12.9462C13.2007 12.9462 12.946 13.2009 12.946 13.515C12.946 13.8291 13.2007 14.0837 13.5148 14.0837Z" fill="#FF9E6B"/>
<path d="M13.5148 14.0837C13.8289 14.0837 14.0835 13.8291 14.0835 13.515C14.0835 13.2009 13.8289 12.9462 13.5148 12.9462C13.2007 12.9462 12.946 13.2009 12.946 13.515C12.946 13.8291 13.2007 14.0837 13.5148 14.0837Z" stroke="#FF9E6B" stroke-width="0.2"/>
</svg>
