<svg width="48" height="48" viewBox="0 0 48 48" fill="none" xmlns="http://www.w3.org/2000/svg">
<circle cx="24" cy="24" r="24" fill="#F87284" fill-opacity="0.1"/>
<path d="M35.2349 19.368H28.3051V12.7651C28.3051 11.7918 27.5132 11 26.54 11H23.5327H20.3947C19.4214 11 18.6296 11.7918 18.6296 12.7651V19.368H11.7651C10.7918 19.368 10 20.1599 10 21.1332V27.2785C10 28.2518 10.7918 29.0436 11.7651 29.0436H18.6295V36.2349C18.6295 37.2082 19.4213 38 20.3946 38H23.5326H26.5399C27.5132 38 28.3051 37.2082 28.3051 36.2349V29.0436H35.2348C36.2081 29.0436 36.9999 28.2518 36.9999 27.2785V21.1332C37 20.1599 36.2082 19.368 35.2349 19.368Z" fill="#F87284"/>
<path d="M35.2348 19.368H28.3051V12.7651C28.3051 11.7918 27.5132 11 26.54 11H23.5327V38H26.54C27.5133 38 28.3051 37.2082 28.3051 36.2349V29.0436H35.2348C36.2082 29.0436 37 28.2518 37 27.2785V21.1332C37 20.1599 36.2082 19.368 35.2348 19.368Z" fill="#E36172"/>
</svg>
