<svg width="32" height="32" viewBox="0 0 32 32" fill="none" xmlns="http://www.w3.org/2000/svg">
<circle cx="16" cy="16" r="16" fill="#52A658" fill-opacity="0.1"/>
<path d="M16.5205 12.2189C16.3233 12.5383 15.8587 12.5387 15.6605 12.2206C15.259 11.5876 14.3468 10.912 13.248 10.912C12.5341 10.912 11.953 11.2615 11.5473 11.8037C11.1404 12.3475 10.912 13.0838 10.912 13.8438C10.912 15.209 11.5977 16.4503 12.5997 17.5242C13.5883 18.5837 14.8769 19.4716 16.09 20.1433C17.3032 19.4716 18.5918 18.5837 19.5803 17.5242C20.5823 16.4503 21.268 15.209 21.268 13.8438C21.268 13.091 21.0423 12.3547 20.6367 11.809C20.2323 11.265 19.6513 10.912 18.932 10.912C18.1402 10.912 17.5396 11.235 17.1341 11.5619C16.9313 11.7254 16.778 11.8893 16.6751 12.0129C16.5722 12.1366 16.5204 12.2191 16.5205 12.2189ZM16.5205 12.2189C16.5206 12.2188 16.5206 12.2188 16.5206 12.2188L16.4355 12.1663L16.5205 12.2189ZM18.932 9.9C17.536 9.9 16.5908 10.6252 16.09 11.1496L16.282 21.0772L16.3292 21.1654C16.3292 21.1654 16.3292 21.1654 16.3292 21.1654C21.4879 18.3976 22.28 15.4063 22.28 13.8438C22.28 11.7304 20.9163 9.9 18.932 9.9Z" fill="#67C57B" stroke="#67C57B" stroke-width="0.2"/>
</svg>
